<svg width="508" height="206" viewBox="0 0 508 206" fill="none" xmlns="http://www.w3.org/2000/svg">
<path d="M41.216 97.152C29.2693 97.152 19.712 94.5067 12.544 89.216C5.376 83.84 1.19467 76.288 0 66.56H18.944C19.5413 71.5093 21.9307 75.4347 26.112 78.336C30.2933 81.152 35.6267 82.56 42.112 82.56C47.4027 82.56 51.456 81.6213 54.272 79.744C57.1733 77.8667 58.624 75.3493 58.624 72.192C58.624 69.2053 57.7707 66.816 56.064 65.024C54.3573 63.1467 51.4133 61.6533 47.232 60.544L30.08 55.808C21.2907 53.3333 14.848 49.9627 10.752 45.696C6.74133 41.344 4.736 35.9253 4.736 29.44C4.736 23.8933 6.144 19.1147 8.96 15.104C11.8613 11.008 15.9147 7.89333 21.12 5.75999C26.3253 3.54133 32.4267 2.432 39.424 2.432C50.176 2.432 58.752 4.992 65.152 10.112C71.552 15.1467 75.1787 21.8453 76.032 30.208H57.088C56.2347 25.6853 54.144 22.3573 50.816 20.224C47.5733 18.0907 43.392 17.024 38.272 17.024C33.8347 17.024 30.2933 17.8773 27.648 19.584C25.0027 21.2907 23.68 23.5947 23.68 26.496C23.68 28.7147 24.4053 30.7627 25.856 32.64C27.3067 34.432 30.336 35.968 34.944 37.248L52.096 41.984C61.1413 44.4587 67.6267 47.872 71.552 52.224C75.5627 56.4907 77.568 61.9093 77.568 68.48C77.568 77.696 74.368 84.7787 67.968 89.728C61.568 94.6773 52.6507 97.152 41.216 97.152Z" fill="black"/>
<path d="M129.196 96C128.684 94.1227 128.3 92.1173 128.044 89.984C127.873 87.8507 127.788 85.376 127.788 82.56H127.276V51.712C127.276 49.0667 126.38 47.0187 124.588 45.568C122.881 44.032 120.321 43.264 116.908 43.264C113.665 43.264 111.063 43.8187 109.1 44.928C107.223 46.0373 105.985 47.6587 105.388 49.792H87.084C87.9373 43.904 90.9667 39.04 96.172 35.2C101.377 31.36 108.503 29.44 117.548 29.44C126.935 29.44 134.103 31.5307 139.052 35.712C144.001 39.8933 146.476 45.9093 146.476 53.76V82.56C146.476 84.6933 146.604 86.8693 146.86 89.088C147.201 91.2213 147.713 93.5253 148.396 96H129.196ZM106.412 97.28C99.9267 97.28 94.764 95.6587 90.924 92.416C87.084 89.088 85.164 84.6933 85.164 79.232C85.164 73.1733 87.4253 68.3093 91.948 64.64C96.556 60.8853 102.956 58.4533 111.148 57.344L130.22 54.656V65.792L114.348 68.224C110.935 68.736 108.417 69.6747 106.796 71.04C105.175 72.4053 104.364 74.2827 104.364 76.672C104.364 78.8053 105.132 80.4267 106.668 81.536C108.204 82.6453 110.252 83.2 112.812 83.2C116.823 83.2 120.236 82.1333 123.052 80C125.868 77.7813 127.276 75.2213 127.276 72.32L129.068 82.56C127.191 87.424 124.332 91.0933 120.492 93.568C116.652 96.0427 111.959 97.28 106.412 97.28Z" fill="black"/>
<path d="M187.709 97.408C179.346 97.408 173.117 95.4027 169.021 91.392C165.01 87.296 163.005 81.1093 163.005 72.832V16.128L182.205 8.96V73.472C182.205 76.3733 183.016 78.5493 184.637 80C186.258 81.4507 188.776 82.176 192.189 82.176C193.469 82.176 194.664 82.048 195.773 81.792C196.882 81.536 197.992 81.2373 199.101 80.896V95.488C197.992 96.0853 196.413 96.5547 194.365 96.896C192.402 97.2373 190.184 97.408 187.709 97.408ZM150.845 45.312V30.72H199.101V45.312H150.845Z" fill="black"/>
<path d="M228.4 96L202.672 30.72H223.28L243.376 91.648H232.624L252.592 30.72H272.688L246.96 96H228.4Z" fill="black"/>
<path d="M278.983 96V30.72H298.183V96H278.983ZM278.343 22.016V1.28H298.823V22.016H278.343Z" fill="black"/>
<path d="M313.483 96V3.84H332.683V96H313.483ZM355.339 96L328.203 62.08L354.699 30.72H376.843L345.739 65.024L346.635 59.008L378.123 96H355.339Z" fill="black"/>
<path d="M7.936 204V111.84H41.984C48.5547 111.84 54.144 112.907 58.752 115.04C63.36 117.173 66.8587 120.16 69.248 124C71.7227 127.755 72.96 132.235 72.96 137.44C72.96 142.645 71.7227 147.211 69.248 151.136C66.8587 154.976 63.36 158.005 58.752 160.224C54.144 162.357 48.5547 163.424 41.984 163.424H15.616V154.208H41.6C48.4267 154.208 53.5893 152.715 57.088 149.728C60.672 146.741 62.464 142.645 62.464 137.44C62.464 132.32 60.7147 128.309 57.216 125.408C53.7173 122.507 48.512 121.056 41.6 121.056H18.432V204H7.936ZM61.952 204L12.928 158.304H27.264L77.824 204H61.952Z" fill="black"/>
<path d="M114.429 205.28C108.029 205.28 102.397 203.787 97.533 200.8C92.669 197.813 88.8717 193.76 86.141 188.64C83.4957 183.435 82.173 177.589 82.173 171.104C82.173 164.533 83.5383 158.731 86.269 153.696C88.9997 148.661 92.7543 144.693 97.533 141.792C102.397 138.891 108.029 137.44 114.429 137.44C120.914 137.44 126.546 138.891 131.325 141.792C136.189 144.693 139.944 148.661 142.589 153.696C145.32 158.731 146.685 164.533 146.685 171.104C146.685 177.589 145.32 183.435 142.589 188.64C139.944 193.76 136.189 197.813 131.325 200.8C126.546 203.787 120.914 205.28 114.429 205.28ZM114.429 196.576C118.866 196.576 122.706 195.509 125.949 193.376C129.192 191.157 131.709 188.128 133.501 184.288C135.293 180.448 136.189 176.011 136.189 170.976C136.189 163.467 134.184 157.451 130.173 152.928C126.248 148.405 121 146.144 114.429 146.144C107.944 146.144 102.696 148.405 98.685 152.928C94.6743 157.451 92.669 163.467 92.669 170.976C92.669 176.011 93.565 180.448 95.357 184.288C97.149 188.128 99.6663 191.157 102.909 193.376C106.237 195.509 110.077 196.576 114.429 196.576Z" fill="black"/>
<path d="M194.299 205.152C188.155 205.152 182.992 203.659 178.811 200.672C174.63 197.685 171.771 193.461 170.235 188L171.643 187.744V204H162.043V111.84H172.283V153.952L170.875 153.568C172.496 148.533 175.44 144.608 179.707 141.792C184.059 138.891 189.222 137.44 195.195 137.44C200.998 137.44 206.032 138.848 210.299 141.664C214.651 144.48 218.022 148.405 220.411 153.44C222.8 158.475 223.995 164.363 223.995 171.104C223.995 177.931 222.758 183.904 220.283 189.024C217.808 194.144 214.352 198.112 209.915 200.928C205.478 203.744 200.272 205.152 194.299 205.152ZM192.763 196.192C199.248 196.192 204.326 193.973 207.995 189.536C211.664 185.013 213.499 178.869 213.499 171.104C213.499 163.424 211.664 157.408 207.995 153.056C204.326 148.619 199.248 146.4 192.763 146.4C186.278 146.4 181.158 148.661 177.403 153.184C173.648 157.621 171.771 163.723 171.771 171.488C171.771 179.083 173.648 185.099 177.403 189.536C181.158 193.973 186.278 196.192 192.763 196.192Z" fill="black"/>
<path d="M266.804 205.28C260.404 205.28 254.772 203.787 249.908 200.8C245.044 197.813 241.247 193.76 238.516 188.64C235.871 183.435 234.548 177.589 234.548 171.104C234.548 164.533 235.913 158.731 238.644 153.696C241.375 148.661 245.129 144.693 249.908 141.792C254.772 138.891 260.404 137.44 266.804 137.44C273.289 137.44 278.921 138.891 283.7 141.792C288.564 144.693 292.319 148.661 294.964 153.696C297.695 158.731 299.06 164.533 299.06 171.104C299.06 177.589 297.695 183.435 294.964 188.64C292.319 193.76 288.564 197.813 283.7 200.8C278.921 203.787 273.289 205.28 266.804 205.28ZM266.804 196.576C271.241 196.576 275.081 195.509 278.324 193.376C281.567 191.157 284.084 188.128 285.876 184.288C287.668 180.448 288.564 176.011 288.564 170.976C288.564 163.467 286.559 157.451 282.548 152.928C278.623 148.405 273.375 146.144 266.804 146.144C260.319 146.144 255.071 148.405 251.06 152.928C247.049 157.451 245.044 163.467 245.044 170.976C245.044 176.011 245.94 180.448 247.732 184.288C249.524 188.128 252.041 191.157 255.284 193.376C258.612 195.509 262.452 196.576 266.804 196.576Z" fill="black"/>
<path d="M339.905 205.152C332.652 205.152 327.361 203.531 324.033 200.288C320.79 196.96 319.169 192.181 319.169 185.952V123.488L329.409 119.648V185.824C329.409 189.493 330.348 192.181 332.225 193.888C334.102 195.595 337.174 196.448 341.441 196.448C343.148 196.448 344.598 196.363 345.793 196.192C347.073 195.936 348.097 195.637 348.865 195.296V204C348.012 204.341 346.774 204.597 345.153 204.768C343.617 205.024 341.868 205.152 339.905 205.152ZM305.729 147.424V138.72H348.865V147.424H305.729Z" fill="black"/>
<path d="M362.043 204V138.72H372.283V204H362.043ZM361.275 123.872V111.84H373.051V123.872H361.275Z" fill="black"/>
<path d="M418.399 205.28C412.426 205.28 407.092 203.829 402.399 200.928C397.791 197.941 394.122 193.888 391.391 188.768C388.746 183.563 387.423 177.675 387.423 171.104C387.423 164.533 388.746 158.731 391.391 153.696C394.122 148.661 397.791 144.693 402.399 141.792C407.092 138.891 412.383 137.44 418.271 137.44C423.135 137.44 427.487 138.379 431.327 140.256C435.252 142.133 438.452 144.821 440.927 148.32C443.487 151.733 445.108 155.744 445.791 160.352H436.319C435.466 156.171 433.503 152.757 430.431 150.112C427.359 147.467 423.391 146.144 418.527 146.144C414.346 146.144 410.719 147.168 407.647 149.216C404.575 151.264 402.186 154.165 400.479 157.92C398.772 161.675 397.919 166.069 397.919 171.104C397.919 176.139 398.772 180.576 400.479 184.416C402.186 188.256 404.575 191.243 407.647 193.376C410.804 195.509 414.474 196.576 418.655 196.576C423.348 196.576 427.274 195.296 430.431 192.736C433.588 190.091 435.594 186.677 436.447 182.496H445.919C445.151 187.019 443.444 191.029 440.799 194.528C438.239 197.941 435.039 200.587 431.199 202.464C427.359 204.341 423.092 205.28 418.399 205.28Z" fill="black"/>
<path d="M482.937 205.28C474.916 205.28 468.516 203.445 463.737 199.776C458.958 196.021 456.228 190.731 455.545 183.904H465.401C465.998 188.085 467.833 191.285 470.905 193.504C473.977 195.723 478.073 196.832 483.193 196.832C487.716 196.832 491.257 195.979 493.817 194.272C496.377 192.565 497.657 190.133 497.657 186.976C497.657 184.757 496.932 182.837 495.481 181.216C494.03 179.509 491.129 178.101 486.777 176.992L476.281 174.304C470.308 172.768 465.828 170.421 462.841 167.264C459.854 164.021 458.361 160.181 458.361 155.744C458.361 150.112 460.452 145.675 464.633 142.432C468.814 139.104 474.489 137.44 481.657 137.44C488.74 137.44 494.5 139.147 498.937 142.56C503.374 145.973 505.892 150.709 506.489 156.768H496.633C496.036 153.269 494.414 150.581 491.769 148.704C489.124 146.827 485.625 145.888 481.273 145.888C477.092 145.888 473.849 146.699 471.545 148.32C469.241 149.856 468.089 152.075 468.089 154.976C468.089 157.195 468.9 159.115 470.521 160.736C472.228 162.357 475.044 163.723 478.969 164.832L489.209 167.648C495.268 169.269 499.833 171.744 502.905 175.072C505.977 178.4 507.513 182.411 507.513 187.104C507.513 192.821 505.337 197.301 500.985 200.544C496.633 203.701 490.617 205.28 482.937 205.28Z" fill="black"/>
<rect x="407.428" y="31.5" width="87" height="57" rx="28.5" fill="url(#paint0_radial_86_27)" stroke="black" stroke-width="15"/>
<rect width="11" height="21" rx="5.5" transform="matrix(-1 0 0 1 441.928 50)" fill="black"/>
<rect width="11" height="21" rx="5.5" transform="matrix(-1 0 0 1 455.928 0)" fill="black"/>
<rect width="11" height="21" rx="5.5" transform="matrix(-1 0 0 1 470.928 50)" fill="black"/>
<rect width="11" height="21" rx="5.5" transform="matrix(-1 0 0 1 506.928 50)" fill="black"/>
<rect width="11" height="21" rx="5.5" transform="matrix(-1 0 0 1 404.928 50)" fill="black"/>
<defs>
<radialGradient id="paint0_radial_86_27" cx="0" cy="0" r="1" gradientUnits="userSpaceOnUse" gradientTransform="translate(481.928 89) rotate(-141.397) scale(79.3363 112.393)">
<stop stop-color="#FF8800"/>
<stop offset="1" stop-color="white"/>
</radialGradient>
</defs>
</svg>
